<svg width="204" height="15" viewBox="0 0 204 15" fill="none" xmlns="http://www.w3.org/2000/svg">
<path d="M8.51562 10.3379L9.99023 10.5234V14H0.830078L0.634766 12.3398C0.810547 12.112 1.17839 11.8906 1.73828 11.6758V2.53516C1.1849 2.33984 0.817057 2.11523 0.634766 1.86133L0.830078 0.201172H5.51758L5.71289 1.86133C5.49805 2.11523 5.13346 2.33984 4.61914 2.53516V11.8223H7.77344C7.94922 11.1191 8.19661 10.6243 8.51562 10.3379ZM18.6719 10.3379L20.1562 10.5234V14H10.8691L10.6738 12.3398C10.8496 12.112 11.2174 11.8906 11.7773 11.6758V2.53516C11.224 2.33984 10.8561 2.11523 10.6738 1.86133L10.8691 0.201172H19.9902V3.67773L18.5156 3.86328C18.2031 3.59635 17.9557 3.10156 17.7734 2.37891H14.6582V5.81641H17.4316C17.5944 5.42578 17.7604 5.14583 17.9297 4.97656L19.1895 5.12305V8.67773L17.9297 8.84375C17.7669 8.70703 17.6009 8.42708 17.4316 8.00391H14.6582V11.8223H17.9297C18.1055 11.1191 18.3529 10.6243 18.6719 10.3379ZM22.041 11.5781L25.8789 0.103516H28.623L32.6074 11.6367C33.1673 11.8385 33.5579 12.0729 33.7793 12.3398L33.584 14H28.9062L28.7012 12.3398C28.8639 12.1315 29.1862 11.9329 29.668 11.7441L29.1211 10.0645H25.127L24.6191 11.6758C25.0879 11.8646 25.4362 12.0859 25.6641 12.3398L25.459 14H20.8984L20.7031 12.3398C20.9505 12.0339 21.3965 11.7799 22.041 11.5781ZM27.2656 3.23828L27.2461 2.89648H26.9629C26.9629 3.70378 26.7969 4.65104 26.4648 5.73828L25.6836 8.21875H28.5449L27.7832 5.77734C27.4772 4.83984 27.3047 3.99349 27.2656 3.23828ZM45.166 4.24414C45.166 5.14909 44.8828 5.90755 44.3164 6.51953C43.75 7.13151 43.0404 7.59701 42.1875 7.91602C42.8516 8.19596 43.291 8.53776 43.5059 8.94141L44.9609 11.7246C45.599 11.9264 46.0286 12.1706 46.25 12.457L46.0449 14H42.666L40.3613 9.09766C40.1595 8.60286 39.9154 8.35547 39.6289 8.35547H38.3301V11.5586C39.2936 11.7734 39.8991 12.0339 40.1465 12.3398L39.9414 14H34.541L34.3457 12.3398C34.5215 12.112 34.8893 11.8906 35.4492 11.6758V2.53516C34.8958 2.33984 34.528 2.11523 34.3457 1.86133L34.541 0.201172H39.6484C40.8919 0.214193 41.9206 0.347656 42.7344 0.601562C43.5482 0.848958 44.1569 1.26562 44.5605 1.85156C44.9642 2.43099 45.166 3.22852 45.166 4.24414ZM39.502 2.37891H38.3301V6.17773H39.4629C40.3743 6.17773 41.0514 6.04102 41.4941 5.76758C41.9434 5.49414 42.168 5.0026 42.168 4.29297C42.168 3.58984 41.9401 3.09505 41.4844 2.80859C41.0352 2.52214 40.3743 2.37891 39.502 2.37891ZM50.127 6.46094V11.7246C50.6217 11.9069 50.9863 12.151 51.2207 12.457L51.0254 14H47.1094L46.9043 12.457C47.1517 12.151 47.5195 11.9069 48.0078 11.7246V2.47656C47.4609 2.28125 47.0801 2.03711 46.8652 1.74414L47.0605 0.201172H51.1816L55.166 7.96484C55.3158 8.24479 55.459 8.57357 55.5957 8.95117C55.7389 9.32227 55.8822 9.73893 56.0254 10.2012L56.1621 10.6797L56.3867 10.6016C56.1979 9.41667 56.1035 8.44336 56.1035 7.68164V2.49609C55.6087 2.30729 55.2441 2.05664 55.0098 1.74414L55.2051 0.201172H59.1211L59.3262 1.74414C59.0788 2.05664 58.7109 2.30729 58.2227 2.49609V14H55.0879L51.0645 6.17773C50.778 5.63737 50.4915 4.88542 50.2051 3.92188L50.0684 3.46289L49.8438 3.54102C50.0326 4.72591 50.127 5.69922 50.127 6.46094ZM66.3965 3.23828L65.1367 3.08203V0.220703H76.3379V3.08203L75.0781 3.23828C74.9023 3.11458 74.7363 2.83464 74.5801 2.39844H72.1777V11.6758C72.6986 11.8841 73.0664 12.1055 73.2812 12.3398L73.0762 14H68.3984L68.1934 12.3398C68.3691 12.112 68.737 11.8906 69.2969 11.6758V2.39844H66.8945C66.7383 2.83464 66.5723 3.11458 66.3965 3.23828ZM85.625 6.51953L83.9453 14.0977H80.8594L77.666 2.53516C77.1126 2.33984 76.7448 2.11523 76.5625 1.86133L76.7578 0.201172H81.3867L81.582 1.86133C81.3477 2.13477 80.9863 2.35286 80.498 2.51562L81.9238 8.42383C82.1387 9.27018 82.3047 10.1165 82.4219 10.9629L82.4609 11.3047H82.7441C82.7572 10.5104 82.8841 9.56315 83.125 8.46289L84.9219 0.337891H87.9785L89.7852 8.42383C89.987 9.38737 90.1335 10.2337 90.2246 10.9629L90.2637 11.3242H90.5469C90.5794 10.4974 90.7389 9.54362 91.0254 8.46289L92.5977 2.60352C92.0312 2.39518 91.6471 2.14779 91.4453 1.86133L91.6406 0.201172H96.0645L96.2598 1.86133C96.0124 2.17383 95.5664 2.43424 94.9219 2.64258L91.5625 14.0977H88.418L86.8066 6.53906C86.7155 6.08333 86.6341 5.63737 86.5625 5.20117C86.4909 4.75846 86.4323 4.31901 86.3867 3.88281L86.3379 3.48242H86.0645C86.0124 4.4069 85.8659 5.41927 85.625 6.51953ZM96.709 1.86133L96.9043 0.201172H101.592L101.787 1.86133C101.572 2.11523 101.208 2.33984 100.693 2.53516V11.6758C101.208 11.8841 101.572 12.1055 101.787 12.3398L101.592 14H96.9043L96.709 12.3398C96.8848 12.112 97.2526 11.8906 97.8125 11.6758V2.53516C97.2591 2.33984 96.8913 2.11523 96.709 1.86133ZM116.152 10.3379L117.627 10.5234V14H108.467L108.271 12.3398C108.447 12.112 108.815 11.8906 109.375 11.6758V2.53516C108.822 2.33984 108.454 2.11523 108.271 1.86133L108.467 0.201172H113.154L113.35 1.86133C113.135 2.11523 112.77 2.33984 112.256 2.53516V11.8223H115.41C115.586 11.1191 115.833 10.6243 116.152 10.3379ZM118.896 11.5781L122.734 0.103516H125.479L129.463 11.6367C130.023 11.8385 130.413 12.0729 130.635 12.3398L130.439 14H125.762L125.557 12.3398C125.719 12.1315 126.042 11.9329 126.523 11.7441L125.977 10.0645H121.982L121.475 11.6758C121.943 11.8646 122.292 12.0859 122.52 12.3398L122.314 14H117.754L117.559 12.3398C117.806 12.0339 118.252 11.7799 118.896 11.5781ZM124.121 3.23828L124.102 2.89648H123.818C123.818 3.70378 123.652 4.65104 123.32 5.73828L122.539 8.21875H125.4L124.639 5.77734C124.333 4.83984 124.16 3.99349 124.121 3.23828ZM134.424 6.46094V11.7246C134.919 11.9069 135.283 12.151 135.518 12.457L135.322 14H131.406L131.201 12.457C131.449 12.151 131.816 11.9069 132.305 11.7246V2.47656C131.758 2.28125 131.377 2.03711 131.162 1.74414L131.357 0.201172H135.479L139.463 7.96484C139.613 8.24479 139.756 8.57357 139.893 8.95117C140.036 9.32227 140.179 9.73893 140.322 10.2012L140.459 10.6797L140.684 10.6016C140.495 9.41667 140.4 8.44336 140.4 7.68164V2.49609C139.906 2.30729 139.541 2.05664 139.307 1.74414L139.502 0.201172H143.418L143.623 1.74414C143.376 2.05664 143.008 2.30729 142.52 2.49609V14H139.385L135.361 6.17773C135.075 5.63737 134.788 4.88542 134.502 3.92188L134.365 3.46289L134.141 3.54102C134.329 4.72591 134.424 5.69922 134.424 6.46094ZM150.537 2.30078C149.632 2.30078 148.929 2.64909 148.428 3.3457C147.926 4.03581 147.676 5.24023 147.676 6.95898C147.676 10.2533 148.584 11.9004 150.4 11.9004C151.11 11.9004 151.748 11.7865 152.314 11.5586V9.30273C151.696 9.0944 151.276 8.84701 151.055 8.56055L151.26 6.97852H155.938L156.143 8.56055C155.967 8.77539 155.651 8.98047 155.195 9.17578V12.877C154.557 13.3457 153.854 13.6777 153.086 13.873C152.318 14.0618 151.361 14.1562 150.215 14.1562C148.307 14.1562 146.908 13.6159 146.016 12.5352C145.124 11.4479 144.678 9.68034 144.678 7.23242C144.678 4.78451 145.208 2.97461 146.27 1.80273C147.337 0.624349 148.792 0.0351562 150.635 0.0351562C152.484 0.0351562 153.991 0.458333 155.156 1.30469V1.75391C155.156 1.90365 155.133 2.13477 155.088 2.44727C155.049 2.75326 154.99 3.07552 154.912 3.41406C154.834 3.74609 154.736 4.0293 154.619 4.26367H152.773C152.572 3.87305 152.438 3.31966 152.373 2.60352C151.807 2.40169 151.195 2.30078 150.537 2.30078ZM167.734 9C167.734 10.7448 167.337 12.0404 166.543 12.8867C165.755 13.7331 164.476 14.1562 162.705 14.1562C161.52 14.1562 160.576 13.974 159.873 13.6094C159.17 13.2383 158.665 12.6719 158.359 11.9102C158.053 11.1484 157.9 10.1784 157.9 9V2.53516C157.386 2.34635 157.018 2.12174 156.797 1.86133L156.992 0.201172H161.68L161.875 1.86133C161.66 2.11523 161.296 2.33984 160.781 2.53516V9.07812C160.781 10.0417 160.938 10.7546 161.25 11.2168C161.562 11.6725 162.126 11.9004 162.939 11.9004C163.753 11.9004 164.326 11.666 164.658 11.1973C164.99 10.722 165.156 10.0156 165.156 9.07812V2.53516C164.603 2.33984 164.235 2.11523 164.053 1.86133L164.258 0.201172H168.633L168.838 1.86133C168.623 2.11523 168.255 2.33984 167.734 2.53516V9ZM169.971 11.5781L173.809 0.103516H176.553L180.537 11.6367C181.097 11.8385 181.488 12.0729 181.709 12.3398L181.514 14H176.836L176.631 12.3398C176.794 12.1315 177.116 11.9329 177.598 11.7441L177.051 10.0645H173.057L172.549 11.6758C173.018 11.8646 173.366 12.0859 173.594 12.3398L173.389 14H168.828L168.633 12.3398C168.88 12.0339 169.326 11.7799 169.971 11.5781ZM175.195 3.23828L175.176 2.89648H174.893C174.893 3.70378 174.727 4.65104 174.395 5.73828L173.613 8.21875H176.475L175.713 5.77734C175.407 4.83984 175.234 3.99349 175.195 3.23828ZM187.686 2.30078C186.781 2.30078 186.077 2.64909 185.576 3.3457C185.075 4.03581 184.824 5.24023 184.824 6.95898C184.824 10.2533 185.732 11.9004 187.549 11.9004C188.258 11.9004 188.896 11.7865 189.463 11.5586V9.30273C188.844 9.0944 188.424 8.84701 188.203 8.56055L188.408 6.97852H193.086L193.291 8.56055C193.115 8.77539 192.799 8.98047 192.344 9.17578V12.877C191.706 13.3457 191.003 13.6777 190.234 13.873C189.466 14.0618 188.509 14.1562 187.363 14.1562C185.456 14.1562 184.056 13.6159 183.164 12.5352C182.272 11.4479 181.826 9.68034 181.826 7.23242C181.826 4.78451 182.357 2.97461 183.418 1.80273C184.486 0.624349 185.941 0.0351562 187.783 0.0351562C189.632 0.0351562 191.139 0.458333 192.305 1.30469V1.75391C192.305 1.90365 192.282 2.13477 192.236 2.44727C192.197 2.75326 192.139 3.07552 192.061 3.41406C191.982 3.74609 191.885 4.0293 191.768 4.26367H189.922C189.72 3.87305 189.587 3.31966 189.521 2.60352C188.955 2.40169 188.343 2.30078 187.686 2.30078ZM202.266 10.3379L203.75 10.5234V14H194.463L194.268 12.3398C194.443 12.112 194.811 11.8906 195.371 11.6758V2.53516C194.818 2.33984 194.45 2.11523 194.268 1.86133L194.463 0.201172H203.584V3.67773L202.109 3.86328C201.797 3.59635 201.549 3.10156 201.367 2.37891H198.252V5.81641H201.025C201.188 5.42578 201.354 5.14583 201.523 4.97656L202.783 5.12305V8.67773L201.523 8.84375C201.361 8.70703 201.195 8.42708 201.025 8.00391H198.252V11.8223H201.523C201.699 11.1191 201.947 10.6243 202.266 10.3379Z" fill="#B01D75"/>
</svg>
