<svg width="30" height="30" viewBox="0 0 30 30" fill="none" xmlns="http://www.w3.org/2000/svg">
<path fill-rule="evenodd" clip-rule="evenodd" d="M17.0435 25.909V15.9574H20.4477L20.9585 12.078H17.0435V9.60151C17.0435 8.47867 17.3601 7.71347 19.0036 7.71347L21.0962 7.71263V4.24271C20.7343 4.19658 19.4921 4.09082 18.0462 4.09082C15.027 4.09082 12.96 5.89842 12.96 9.2173V12.078H9.54544V15.9574H12.96V25.909H17.0435Z" fill="#110F0F"/>
<mask id="mask0_9_124" style="mask-type:luminance" maskUnits="userSpaceOnUse" x="9" y="4" width="13" height="22">
<path fill-rule="evenodd" clip-rule="evenodd" d="M17.0435 25.909V15.9574H20.4477L20.9585 12.078H17.0435V9.60151C17.0435 8.47867 17.3601 7.71347 19.0036 7.71347L21.0962 7.71263V4.24271C20.7343 4.19658 19.4921 4.09082 18.0462 4.09082C15.027 4.09082 12.96 5.89842 12.96 9.2173V12.078H9.54544V15.9574H12.96V25.909H17.0435Z" fill="white"/>
</mask>
<g mask="url(#mask0_9_124)">
</g>
</svg>
