<svg width="30" height="30" viewBox="0 0 30 30" fill="none" xmlns="http://www.w3.org/2000/svg">
<path d="M7.5 11.0526C8.49456 11.0526 9.44839 10.6367 10.1517 9.89647C10.8549 9.1562 11.25 8.15217 11.25 7.10526C11.25 6.05836 10.8549 5.05433 10.1517 4.31405C9.44839 3.57378 8.49456 3.15789 7.5 3.15789C6.50544 3.15789 5.55161 3.57378 4.84835 4.31405C4.14509 5.05433 3.75 6.05836 3.75 7.10526C3.75 8.15217 4.14509 9.1562 4.84835 9.89647C5.55161 10.6367 6.50544 11.0526 7.5 11.0526ZM7.5 14.2105C6.61358 14.2105 5.73583 14.0267 4.91689 13.6697C4.09794 13.3126 3.35382 12.7892 2.72703 12.1294C2.10023 11.4697 1.60303 10.6864 1.26381 9.82433C0.924594 8.96228 0.75 8.03834 0.75 7.10526C0.75 6.17219 0.924594 5.24825 1.26381 4.3862C1.60303 3.52415 2.10023 2.74087 2.72703 2.08108C3.35382 1.4213 4.09794 0.897929 4.91689 0.540856C5.73583 0.183783 6.61358 -1.39039e-08 7.5 0C9.29021 2.80802e-08 11.0071 0.748588 12.273 2.08108C13.5388 3.41358 14.25 5.22083 14.25 7.10526C14.25 8.9897 13.5388 10.7969 12.273 12.1294C11.0071 13.4619 9.29021 14.2105 7.5 14.2105ZM23.25 17.3684C24.0456 17.3684 24.8087 17.0357 25.3713 16.4435C25.9339 15.8513 26.25 15.0481 26.25 14.2105C26.25 13.373 25.9339 12.5698 25.3713 11.9776C24.8087 11.3853 24.0456 11.0526 23.25 11.0526C22.4544 11.0526 21.6913 11.3853 21.1287 11.9776C20.5661 12.5698 20.25 13.373 20.25 14.2105C20.25 15.0481 20.5661 15.8513 21.1287 16.4435C21.6913 17.0357 22.4544 17.3684 23.25 17.3684ZM23.25 20.5263C21.6587 20.5263 20.1326 19.8609 19.0074 18.6765C17.8821 17.492 17.25 15.8856 17.25 14.2105C17.25 12.5355 17.8821 10.929 19.0074 9.74459C20.1326 8.56015 21.6587 7.89474 23.25 7.89474C24.8413 7.89474 26.3674 8.56015 27.4926 9.74459C28.6179 10.929 29.25 12.5355 29.25 14.2105C29.25 15.8856 28.6179 17.492 27.4926 18.6765C26.3674 19.8609 24.8413 20.5263 23.25 20.5263ZM27 30V29.2105C27 28.1636 26.6049 27.1596 25.9016 26.4193C25.1984 25.679 24.2446 25.2632 23.25 25.2632C22.2554 25.2632 21.3016 25.679 20.5984 26.4193C19.8951 27.1596 19.5 28.1636 19.5 29.2105V30H16.5V29.2105C16.5 28.2775 16.6746 27.3535 17.0138 26.4915C17.353 25.6294 17.8502 24.8461 18.477 24.1863C19.1038 23.5266 19.8479 23.0032 20.6669 22.6461C21.4858 22.289 22.3636 22.1053 23.25 22.1053C24.1364 22.1053 25.0142 22.289 25.8331 22.6461C26.6521 23.0032 27.3962 23.5266 28.023 24.1863C28.6498 24.8461 29.147 25.6294 29.4862 26.4915C29.8254 27.3535 30 28.2775 30 29.2105V30H27ZM12 30V23.6842C12 23.0622 11.8836 22.4462 11.6575 21.8715C11.4313 21.2968 11.0998 20.7746 10.682 20.3348C10.2641 19.8949 9.76804 19.546 9.22208 19.3079C8.67611 19.0699 8.09095 18.9474 7.5 18.9474C6.90905 18.9474 6.32389 19.0699 5.77792 19.3079C5.23196 19.546 4.73588 19.8949 4.31802 20.3348C3.90016 20.7746 3.56869 21.2968 3.34254 21.8715C3.1164 22.4462 3 23.0622 3 23.6842V30H0V23.6842C0 21.5904 0.790176 19.5823 2.1967 18.1018C3.60322 16.6212 5.51088 15.7895 7.5 15.7895C9.48912 15.7895 11.3968 16.6212 12.8033 18.1018C14.2098 19.5823 15 21.5904 15 23.6842V30H12Z" fill="white"/>
</svg>
