<svg width="32" height="32" viewBox="0 0 32 32" fill="none" xmlns="http://www.w3.org/2000/svg">
<path d="M1 21.1762C1 27.4957 5.20047 31 10.176 31C11.1427 31 12.0998 30.8148 12.9929 30.4549C13.8859 30.095 14.6974 29.5675 15.3809 28.9026C16.0644 28.2376 16.6066 27.4482 16.9765 26.5793C17.3464 25.7105 17.5368 24.7793 17.5368 23.8389C17.5368 22.8985 17.3464 21.9673 16.9765 21.0985C16.6066 20.2297 16.0644 19.4402 15.3809 18.7753C14.6974 18.1103 13.8859 17.5828 12.9929 17.223C12.0998 16.8631 11.1427 16.6778 10.176 16.6778C5.41299 16.6778 1 13.1752 1 8.60706V21.1762Z" stroke="white" stroke-linecap="round" stroke-linejoin="round"/>
<path d="M22.6141 16.6649C23.2423 15.5366 23.5589 14.2691 23.533 12.9861C23.5072 11.7032 23.1396 10.4487 22.4664 9.34525C21.7931 8.24181 20.8371 7.32715 19.6919 6.69062C18.5466 6.0541 17.2512 5.71748 15.9322 5.71366C14.6132 5.70983 13.3158 6.03894 12.1666 6.66882C11.0175 7.29869 10.0559 8.2078 9.37593 9.30732C8.69593 10.4068 8.32072 11.6592 8.28698 12.9419C8.25324 14.2247 8.56211 15.4941 9.18341 16.626" stroke="white" stroke-linecap="round" stroke-linejoin="round"/>
<path d="M1 8.60701C1 4.0908 3.94783 1 8.36082 1C12.7738 1 14.2323 3.71459 15.4883 5.72296M15.9992 19.4605C16.6864 18.5937 17.5691 17.892 18.5791 17.4096C19.5891 16.9271 20.6996 16.6767 21.8248 16.6778C26.587 16.6778 31 13.1751 31 8.60701M31 8.60701V21.1762C31 27.4956 26.7995 30.9999 21.824 30.9999C20.699 31.0007 19.5889 30.7503 18.5792 30.2678C17.5695 29.7854 16.6871 29.0838 16 28.2172M31 8.60701C31 4.0908 28.0522 1 23.6392 1C19.227 1 17.7677 3.71459 16.5117 5.72296" stroke="white" stroke-linecap="round" stroke-linejoin="round"/>
</svg>
