<svg width="30" height="30" viewBox="0 0 30 30" fill="none" xmlns="http://www.w3.org/2000/svg">
<path d="M30 11.7857C30 10.238 29.6952 8.70543 29.1029 7.27552C28.5106 5.84561 27.6424 4.54636 26.548 3.45196C25.4536 2.35755 24.1544 1.48942 22.7245 0.897134C21.2946 0.304846 19.762 0 18.2143 0H9.64286C7.08541 0 4.63271 1.01594 2.82433 2.82433C1.01594 4.63271 0 7.08541 0 9.64286V12.8571C0 14.2779 0.564412 15.6406 1.56907 16.6452C2.57373 17.6499 3.93634 18.2143 5.35714 18.2143H6.53571C6.78271 19.4243 7.44019 20.5119 8.39689 21.2928C9.35358 22.0738 10.5507 22.5003 11.7857 22.5H13.2643L17.55 30L19.4036 28.9286L15.1179 21.5464C14.9454 21.199 14.682 20.9049 14.3555 20.6954C14.0291 20.486 13.652 20.3691 13.2643 20.3571H11.7857C10.9332 20.3571 10.1157 20.0185 9.51287 19.4157C8.91008 18.8129 8.57143 17.9953 8.57143 17.1429C8.57143 16.2904 8.91008 15.4728 9.51287 14.87C10.1157 14.2672 10.9332 13.9286 11.7857 13.9286H12.8571V11.7857H11.7857C10.5507 11.7855 9.35358 12.2119 8.39689 12.9929C7.44019 13.7739 6.78271 14.8614 6.53571 16.0714H5.35714C4.50466 16.0714 3.6871 15.7328 3.0843 15.13C2.4815 14.5272 2.14286 13.7096 2.14286 12.8571V10.7143H4.28571C5.1382 10.7143 5.95576 10.3756 6.55856 9.77284C7.16135 9.17005 7.5 8.35248 7.5 7.5V6.42857H5.35714V7.5C5.35714 7.78416 5.24426 8.05668 5.04333 8.25761C4.8424 8.45855 4.56987 8.57143 4.28571 8.57143H2.22857C2.486 6.78793 3.37694 5.15674 4.73842 3.97626C6.0999 2.79579 7.84088 2.14497 9.64286 2.14286H16.0714V4.28571C16.0714 4.56987 15.9585 4.8424 15.7576 5.04333C15.5567 5.24426 15.2842 5.35714 15 5.35714H12.8571V7.5H15C15.8525 7.5 16.67 7.16135 17.2728 6.55856C17.8756 5.95576 18.2143 5.1382 18.2143 4.28571V2.14286C20.0079 2.1453 21.7653 2.64795 23.289 3.59432C24.8126 4.54068 26.0421 5.89325 26.8393 7.5H25.7143C24.8618 7.5 24.0442 7.83865 23.4414 8.44144C22.8386 9.04424 22.5 9.8618 22.5 10.7143V11.7857H24.6429V10.7143C24.6429 10.4301 24.7557 10.1576 24.9567 9.95667C25.1576 9.75574 25.4301 9.64286 25.7143 9.64286H27.6107C27.7749 10.3453 27.8576 11.0643 27.8571 11.7857V12.8571C27.8571 14.2779 27.2927 15.6406 26.2881 16.6452C25.2834 17.6499 23.9208 18.2143 22.5 18.2143H19.2857V20.3571H22.5C23.6122 20.3556 24.7101 20.1068 25.7143 19.6286V20.3571C25.7143 21.2096 25.3756 22.0272 24.7728 22.63C24.17 23.2328 23.3525 23.5714 22.5 23.5714H21.4286V25.7143H22.5C23.9208 25.7143 25.2834 25.1499 26.2881 24.1452C27.2927 23.1406 27.8571 21.7779 27.8571 20.3571V18.0964C29.2284 16.6969 29.9975 14.8164 30 12.8571V11.7857Z" fill="white"/>
</svg>
