<svg width="30" height="30" viewBox="0 0 30 30" fill="none" xmlns="http://www.w3.org/2000/svg">
<path d="M8.125 1.875C7.37908 1.875 6.66371 2.17132 6.13626 2.69876C5.60882 3.22621 5.3125 3.94158 5.3125 4.6875C5.3125 5.43342 5.60882 6.14879 6.13626 6.67624C6.66371 7.20368 7.37908 7.5 8.125 7.5C8.87092 7.5 9.58629 7.20368 10.1137 6.67624C10.6412 6.14879 10.9375 5.43342 10.9375 4.6875C10.9375 3.94158 10.6412 3.22621 10.1137 2.69876C9.58629 2.17132 8.87092 1.875 8.125 1.875ZM3.4375 4.6875C3.4375 3.4443 3.93136 2.25201 4.81044 1.37294C5.68951 0.49386 6.8818 0 8.125 0C9.3682 0 10.5605 0.49386 11.4396 1.37294C12.3186 2.25201 12.8125 3.4443 12.8125 4.6875C12.8125 5.9307 12.3186 7.12299 11.4396 8.00206C10.5605 8.88114 9.3682 9.375 8.125 9.375C6.8818 9.375 5.68951 8.88114 4.81044 8.00206C3.93136 7.12299 3.4375 5.9307 3.4375 4.6875ZM0 13.7275C0 12.3588 1.10875 11.25 2.4775 11.25H9.4775C9.24044 11.8486 9.10279 12.482 9.07 13.125H2.4775C2.31771 13.125 2.16446 13.1885 2.05147 13.3015C1.93848 13.4145 1.875 13.5677 1.875 13.7275V14.2188C1.875 14.4338 1.8775 15.735 2.63375 16.965C3.28375 18.02 4.57625 19.1637 7.325 19.3488C6.68936 19.7617 6.19417 20.3581 5.905 21.0588C3.39875 20.595 1.89625 19.3438 1.0375 17.9463C-7.45058e-08 16.2625 0 14.5225 0 14.2225V13.7275ZM20.5212 11.25C20.7537 11.835 20.8962 12.4663 20.9287 13.125H27.5225C27.855 13.125 28.125 13.395 28.125 13.7275V14.2188C28.125 14.4338 28.1225 15.735 27.365 16.965C26.7162 18.02 25.425 19.1637 22.675 19.3488C23.3062 19.7588 23.805 20.355 24.095 21.0588C26.6012 20.595 28.1038 19.3438 28.9625 17.9463C30 16.2612 30 14.5212 30 14.2212V13.7275C30 13.0704 29.739 12.4403 29.2744 11.9756C28.8097 11.511 28.1796 11.25 27.5225 11.25H20.5212ZM21.875 1.875C21.1291 1.875 20.4137 2.17132 19.8863 2.69876C19.3588 3.22621 19.0625 3.94158 19.0625 4.6875C19.0625 5.43342 19.3588 6.14879 19.8863 6.67624C20.4137 7.20368 21.1291 7.5 21.875 7.5C22.6209 7.5 23.3363 7.20368 23.8637 6.67624C24.3912 6.14879 24.6875 5.43342 24.6875 4.6875C24.6875 3.94158 24.3912 3.22621 23.8637 2.69876C23.3363 2.17132 22.6209 1.875 21.875 1.875ZM17.1875 4.6875C17.1875 3.4443 17.6814 2.25201 18.5604 1.37294C19.4395 0.49386 20.6318 0 21.875 0C23.1182 0 24.3105 0.49386 25.1896 1.37294C26.0686 2.25201 26.5625 3.4443 26.5625 4.6875C26.5625 5.9307 26.0686 7.12299 25.1896 8.00206C24.3105 8.88114 23.1182 9.375 21.875 9.375C20.6318 9.375 19.4395 8.88114 18.5604 8.00206C17.6814 7.12299 17.1875 5.9307 17.1875 4.6875ZM6.875 22.4775C6.875 21.1088 7.98375 20 9.3525 20H20.6475C22.0162 20 23.125 21.1088 23.125 22.4775V22.9713C23.125 23.2713 23.125 25.0112 22.0875 26.6963C21 28.4663 18.8825 30 15 30C11.1175 30 9 28.465 7.9125 26.6975C6.875 25.0112 6.875 23.2725 6.875 22.9713V22.4775ZM9.3525 21.875C9.19271 21.875 9.03946 21.9385 8.92647 22.0515C8.81348 22.1645 8.75 22.3177 8.75 22.4775V22.9688C8.75 23.1838 8.7525 24.485 9.50875 25.715C10.2188 26.8675 11.695 28.125 15 28.125C18.305 28.125 19.7812 26.8675 20.49 25.715C21.2475 24.4862 21.25 23.1838 21.25 22.9688V22.4775C21.25 22.3177 21.1865 22.1645 21.0735 22.0515C20.9605 21.9385 20.8073 21.875 20.6475 21.875H9.3525ZM12.1875 13.4375C12.1875 13.0682 12.2602 12.7024 12.4016 12.3612C12.5429 12.02 12.7501 11.7099 13.0113 11.4488C13.2724 11.1876 13.5825 10.9804 13.9237 10.8391C14.2649 10.6977 14.6307 10.625 15 10.625C15.3693 10.625 15.7351 10.6977 16.0763 10.8391C16.4175 10.9804 16.7276 11.1876 16.9887 11.4488C17.2499 11.7099 17.4571 12.02 17.5984 12.3612C17.7398 12.7024 17.8125 13.0682 17.8125 13.4375C17.8125 14.1834 17.5162 14.8988 16.9887 15.4262C16.4613 15.9537 15.7459 16.25 15 16.25C14.2541 16.25 13.5387 15.9537 13.0113 15.4262C12.4838 14.8988 12.1875 14.1834 12.1875 13.4375ZM15 8.75C13.7568 8.75 12.5645 9.24386 11.6854 10.1229C10.8064 11.002 10.3125 12.1943 10.3125 13.4375C10.3125 14.6807 10.8064 15.873 11.6854 16.7521C12.5645 17.6311 13.7568 18.125 15 18.125C16.2432 18.125 17.4355 17.6311 18.3146 16.7521C19.1936 15.873 19.6875 14.6807 19.6875 13.4375C19.6875 12.1943 19.1936 11.002 18.3146 10.1229C17.4355 9.24386 16.2432 8.75 15 8.75Z" fill="white"/>
</svg>
