<svg width="32" height="32" viewBox="0 0 32 32" fill="none" xmlns="http://www.w3.org/2000/svg">
<path d="M17.4033 6.87581C19.0263 6.87581 20.3419 5.56047 20.3419 3.93791C20.3419 2.31535 19.0263 1 17.4033 1C15.7804 1 14.4648 2.31535 14.4648 3.93791C14.4648 5.56047 15.7804 6.87581 17.4033 6.87581Z" stroke="white" stroke-linecap="round" stroke-linejoin="round"/>
<path d="M28.0614 17.5656C29.6843 17.5656 31 16.2503 31 14.6277C31 13.0052 29.6843 11.6898 28.0614 11.6898C26.4385 11.6898 25.1228 13.0052 25.1228 14.6277C25.1228 16.2503 26.4385 17.5656 28.0614 17.5656Z" stroke="white" stroke-linecap="round" stroke-linejoin="round"/>
<path d="M21.1835 31C22.8065 31 24.1221 29.6846 24.1221 28.0621C24.1221 26.4395 22.8065 25.1241 21.1835 25.1241C19.5606 25.1241 18.2449 26.4395 18.2449 28.0621C18.2449 29.6846 19.5606 31 21.1835 31Z" stroke="white" stroke-linecap="round" stroke-linejoin="round"/>
<path d="M6.27496 28.6125C7.89789 28.6125 9.21355 27.2972 9.21355 25.6746C9.21355 24.052 7.89789 22.7367 6.27496 22.7367C4.65202 22.7367 3.33636 24.052 3.33636 25.6746C3.33636 27.2972 4.65202 28.6125 6.27496 28.6125Z" stroke="white" stroke-linecap="round" stroke-linejoin="round"/>
<path d="M3.93859 13.7032C5.56153 13.7032 6.87718 12.3879 6.87718 10.7653C6.87718 9.14274 5.56153 7.82739 3.93859 7.82739C2.31565 7.82739 1 9.14274 1 10.7653C1 12.3879 2.31565 13.7032 3.93859 13.7032Z" stroke="white" stroke-linecap="round" stroke-linejoin="round"/>
<path d="M16.0747 6.55911L7.6867 23.0982M25.4501 15.9763L8.96514 24.4921M20.7286 25.1605L17.8584 6.84097M6.01329 12.8465L19.1089 25.981M25.1591 14.1631L6.81859 11.3528M14.7369 5.29004L6.559 9.43702M5.79487 22.7765L4.38733 13.6698M18.2443 27.6324L9.14658 26.3019M26.7223 17.2433L22.522 25.4465M19.4781 6.01911L25.9868 12.5472" stroke="white" stroke-linecap="round" stroke-linejoin="round"/>
</svg>
