<svg width="32" height="32" viewBox="0 0 32 32" fill="none" xmlns="http://www.w3.org/2000/svg">
<path d="M10.8481 1C16.2838 1 20.697 5.41324 20.697 10.8481V20.697H1V10.8489C1 5.41242 5.41324 1 10.8481 1Z" stroke="white" stroke-linecap="round" stroke-linejoin="round"/>
<path d="M10.394 20.697C10.394 26.3873 15.0067 31 20.697 31C26.3873 31 31 26.3864 31 20.697C31 15.0075 26.3873 10.394 20.697 10.394" stroke="white" stroke-linecap="round" stroke-linejoin="round"/>
<path d="M4.99 29.838C6.52415 29.838 7.76783 28.5943 7.76783 27.0602C7.76783 25.526 6.52415 24.2823 4.99 24.2823C3.45584 24.2823 2.21216 25.526 2.21216 27.0602C2.21216 28.5943 3.45584 29.838 4.99 29.838Z" stroke="white" stroke-linecap="round" stroke-linejoin="round"/>
<path d="M6.54759 11.4967C7.5426 11.4967 8.34922 10.6901 8.34922 9.69505C8.34922 8.70005 7.5426 7.89343 6.54759 7.89343C5.55259 7.89343 4.74597 8.70005 4.74597 9.69505C4.74597 10.6901 5.55259 11.4967 6.54759 11.4967Z" stroke="white" stroke-linecap="round" stroke-linejoin="round"/>
<path d="M14.5957 11.4967C15.5907 11.4967 16.3973 10.6901 16.3973 9.69505C16.3973 8.70005 15.5907 7.89343 14.5957 7.89343C13.6007 7.89343 12.7941 8.70005 12.7941 9.69505C12.7941 10.6901 13.6007 11.4967 14.5957 11.4967Z" stroke="white" stroke-linecap="round" stroke-linejoin="round"/>
<path d="M25.1038 20.697C26.0988 20.697 26.9054 19.8904 26.9054 18.8954C26.9054 17.9004 26.0988 17.0938 25.1038 17.0938C24.1088 17.0938 23.3022 17.9004 23.3022 18.8954C23.3022 19.8904 24.1088 20.697 25.1038 20.697Z" stroke="white" stroke-linecap="round" stroke-linejoin="round"/>
<path d="M24.5857 5.94917L28.5254 2.01025M24.5857 2.01025L28.5254 5.94917" stroke="white" stroke-linecap="round" stroke-linejoin="round"/>
</svg>
