<svg width="32" height="32" viewBox="0 0 32 32" fill="none" xmlns="http://www.w3.org/2000/svg">
<path d="M23.491 4.94812C25.0014 6.00856 26.2931 7.37888 27.2889 8.97712C28.2847 10.5754 28.964 12.3687 29.2864 14.2497C29.8476 14.6319 30.3017 15.165 30.6015 15.794C30.9014 16.423 31.0361 17.1249 30.9917 17.8271C30.9474 18.5293 30.7256 19.2063 30.3492 19.7879C29.9729 20.3695 29.4558 20.8347 28.8514 21.1352C27.977 24.0003 26.2615 26.4992 23.952 28.272C21.6425 30.0449 18.8581 31.0001 16 31.0001C13.1419 31.0001 10.3575 30.0449 8.04799 28.272C5.73846 26.4992 4.02295 24.0003 3.14858 21.1352C2.54419 20.8347 2.02706 20.3695 1.65075 19.7879C1.27444 19.2063 1.05263 18.5293 1.00827 17.8271C0.963909 17.1249 1.09862 16.423 1.39846 15.794C1.69829 15.165 2.15235 14.6319 2.71363 14.2497C3.02956 12.4059 3.68859 10.6461 4.65281 9.07147C5.61703 7.49682 6.86742 6.13844 8.33204 5.07446" stroke="white" stroke-width="2" stroke-linecap="round" stroke-linejoin="round"/>
<path d="M12.2422 23.1091C12.7309 23.6344 13.3143 24.0517 13.9582 24.3365C14.602 24.6214 15.2934 24.7681 15.9918 24.7681C16.6902 24.7681 17.3815 24.6214 18.0254 24.3365C18.6692 24.0517 19.2526 23.6344 19.7414 23.1091M10.7423 1C12.9921 2.57922 14.4919 6.52728 14.4919 8.89612M16.7417 1C18.9915 4.15845 19.7414 6.52728 19.7414 8.89612M11.4922 16.7922H11.5072M20.4913 16.7922H20.5063" stroke="white" stroke-width="2" stroke-linecap="round" stroke-linejoin="round"/>
</svg>
