<svg width="30" height="30" viewBox="0 0 30 30" fill="none" xmlns="http://www.w3.org/2000/svg">
<path fill-rule="evenodd" clip-rule="evenodd" d="M9.50078 2.72729H20.4989C24.2341 2.72729 27.2729 5.76604 27.2727 9.50095V20.4991C27.2727 24.234 24.2341 27.2728 20.4989 27.2728H9.50078C5.76586 27.2728 2.72726 24.2342 2.72726 20.4991V9.50095C2.72726 5.76604 5.76586 2.72729 9.50078 2.72729ZM20.4991 25.095C23.0333 25.095 25.0951 23.0333 25.0951 20.4991H25.0949V9.50095C25.0949 6.96687 23.0331 4.90509 20.4989 4.90509H9.50078C6.9667 4.90509 4.90506 6.96687 4.90506 9.50095V20.4991C4.90506 23.0333 6.9667 25.0951 9.50078 25.095H20.4991ZM8.57142 15.0002C8.57142 11.4553 11.4552 8.57145 15 8.57145C18.5448 8.57145 21.4286 11.4553 21.4286 15.0002C21.4286 18.5449 18.5448 21.4286 15 21.4286C11.4552 21.4286 8.57142 18.5449 8.57142 15.0002ZM10.785 15C10.785 17.3241 12.6759 19.2149 15 19.2149C17.3241 19.2149 19.215 17.3241 19.215 15C19.215 12.6757 17.3242 10.7849 15 10.7849C12.6758 10.7849 10.785 12.6757 10.785 15Z" fill="#110F0F"/>
<mask id="mask0_9_130" style="mask-type:luminance" maskUnits="userSpaceOnUse" x="2" y="2" width="26" height="26">
<path fill-rule="evenodd" clip-rule="evenodd" d="M9.50078 2.72729H20.4989C24.2341 2.72729 27.2729 5.76604 27.2727 9.50095V20.4991C27.2727 24.234 24.2341 27.2728 20.4989 27.2728H9.50078C5.76586 27.2728 2.72726 24.2342 2.72726 20.4991V9.50095C2.72726 5.76604 5.76586 2.72729 9.50078 2.72729ZM20.4991 25.095C23.0333 25.095 25.0951 23.0333 25.0951 20.4991H25.0949V9.50095C25.0949 6.96687 23.0331 4.90509 20.4989 4.90509H9.50078C6.9667 4.90509 4.90506 6.96687 4.90506 9.50095V20.4991C4.90506 23.0333 6.9667 25.0951 9.50078 25.095H20.4991ZM8.57142 15.0002C8.57142 11.4553 11.4552 8.57145 15 8.57145C18.5448 8.57145 21.4286 11.4553 21.4286 15.0002C21.4286 18.5449 18.5448 21.4286 15 21.4286C11.4552 21.4286 8.57142 18.5449 8.57142 15.0002ZM10.785 15C10.785 17.3241 12.6759 19.2149 15 19.2149C17.3241 19.2149 19.215 17.3241 19.215 15C19.215 12.6757 17.3242 10.7849 15 10.7849C12.6758 10.7849 10.785 12.6757 10.785 15Z" fill="white"/>
</mask>
<g mask="url(#mask0_9_130)">
</g>
</svg>
