<svg width="30" height="30" viewBox="0 0 30 30" fill="none" xmlns="http://www.w3.org/2000/svg">
<path d="M24 3.75H6C4.7625 3.75 3.75 4.7625 3.75 6V24C3.75 25.2375 4.7625 26.25 6 26.25H24C25.2375 26.25 26.25 25.2375 26.25 24V6C26.25 4.7625 25.2375 3.75 24 3.75ZM10.5 22.875H7.125V12.75H10.5V22.875ZM8.8125 10.8375C7.6875 10.8375 6.7875 9.9375 6.7875 8.8125C6.7875 7.6875 7.6875 6.7875 8.8125 6.7875C9.9375 6.7875 10.8375 7.6875 10.8375 8.8125C10.8375 9.9375 9.9375 10.8375 8.8125 10.8375ZM22.875 22.875H19.5V16.9125C19.5 16.0125 18.7125 15.225 17.8125 15.225C16.9125 15.225 16.125 16.0125 16.125 16.9125V22.875H12.75V12.75H16.125V14.1C16.6875 13.2 17.925 12.525 18.9375 12.525C21.075 12.525 22.875 14.325 22.875 16.4625V22.875Z" fill="#110F0F"/>
</svg>
