<svg width="30" height="30" viewBox="0 0 30 30" fill="none" xmlns="http://www.w3.org/2000/svg">
<path fill-rule="evenodd" clip-rule="evenodd" d="M27.2727 7.68251C26.4195 8.06057 25.504 8.31698 24.5421 8.43145C25.5242 7.8433 26.2761 6.91042 26.6324 5.80224C25.7111 6.3469 24.6942 6.74239 23.6106 6.95679C22.7429 6.03114 21.5087 5.45459 20.1398 5.45459C17.5135 5.45459 15.3841 7.58402 15.3841 10.2089C15.3841 10.5811 15.4261 10.9447 15.5072 11.2924C11.5555 11.0939 8.05133 9.20065 5.70606 6.32372C5.2961 7.02486 5.06288 7.84182 5.06288 8.71391C5.06288 10.3639 5.90307 11.8197 7.17784 12.6714C6.39849 12.6454 5.6655 12.431 5.02379 12.0746V12.134C5.02379 14.4373 6.6636 16.3596 8.83792 16.7971C8.43955 16.9042 8.01947 16.9636 7.58489 16.9636C7.27781 16.9636 6.98084 16.9332 6.68966 16.8753C7.29515 18.7657 9.05087 20.1404 11.1311 20.1781C9.50428 21.4528 7.45307 22.2105 5.22515 22.2105C4.84129 22.2105 4.46318 22.1873 4.09091 22.1453C6.19572 23.4968 8.69455 24.2849 11.3802 24.2849C20.1283 24.2849 24.9101 17.039 24.9101 10.755L24.8941 10.1394C25.8284 9.47296 26.6367 8.63569 27.2727 7.68251Z" fill="#110F0F"/>
<mask id="mask0_9_127" style="mask-type:luminance" maskUnits="userSpaceOnUse" x="4" y="5" width="24" height="20">
<path fill-rule="evenodd" clip-rule="evenodd" d="M27.2727 7.68251C26.4195 8.06057 25.504 8.31698 24.5421 8.43145C25.5242 7.8433 26.2761 6.91042 26.6324 5.80224C25.7111 6.3469 24.6942 6.74239 23.6106 6.95679C22.7429 6.03114 21.5087 5.45459 20.1398 5.45459C17.5135 5.45459 15.3841 7.58402 15.3841 10.2089C15.3841 10.5811 15.4261 10.9447 15.5072 11.2924C11.5555 11.0939 8.05133 9.20065 5.70606 6.32372C5.2961 7.02486 5.06288 7.84182 5.06288 8.71391C5.06288 10.3639 5.90307 11.8197 7.17784 12.6714C6.39849 12.6454 5.6655 12.431 5.02379 12.0746V12.134C5.02379 14.4373 6.6636 16.3596 8.83792 16.7971C8.43955 16.9042 8.01947 16.9636 7.58489 16.9636C7.27781 16.9636 6.98084 16.9332 6.68966 16.8753C7.29515 18.7657 9.05087 20.1404 11.1311 20.1781C9.50428 21.4528 7.45307 22.2105 5.22515 22.2105C4.84129 22.2105 4.46318 22.1873 4.09091 22.1453C6.19572 23.4968 8.69455 24.2849 11.3802 24.2849C20.1283 24.2849 24.9101 17.039 24.9101 10.755L24.8941 10.1394C25.8284 9.47296 26.6367 8.63569 27.2727 7.68251Z" fill="white"/>
</mask>
<g mask="url(#mask0_9_127)">
</g>
</svg>
